<?xml version="1.0" encoding="UTF-8" standalone="no"?>
<!-- Created with Inkscape (http://www.inkscape.org/) -->

<svg
   xmlns:dc="http://purl.org/dc/elements/1.1/"
   xmlns:cc="http://creativecommons.org/ns#"
   xmlns:rdf="http://www.w3.org/1999/02/22-rdf-syntax-ns#"
   xmlns:svg="http://www.w3.org/2000/svg"
   xmlns="http://www.w3.org/2000/svg"
   xmlns:xlink="http://www.w3.org/1999/xlink"
   version="1.2"
   width="96"
   height="96"
   viewBox="0 0 96 96"
   id="ORANGE_BACKGROUNDS"
   xml:space="preserve"
   style="display:inline"><metadata
   id="metadata3069"><rdf:RDF><cc:Work
       rdf:about=""><dc:format>image/svg+xml</dc:format><dc:type
         rdf:resource="http://purl.org/dc/dcmitype/StillImage" /><dc:title></dc:title></cc:Work></rdf:RDF></metadata><defs
   id="defs3067"><linearGradient
     id="linearGradient5113"><stop
       id="stop5115"
       style="stop-color:#64af2d;stop-opacity:1"
       offset="0" /></linearGradient><linearGradient
     x1="47.9995"
     y1="8.0107002"
     x2="47.9995"
     y2="87.9897"
     id="RED_x2F_ORANGE_5_2_-8"
     gradientUnits="userSpaceOnUse">
			<stop
   id="stop6363"
   style="stop-color:#ffdb62;stop-opacity:1"
   offset="0" />
			<stop
   id="stop6365"
   style="stop-color:#fad15c;stop-opacity:1"
   offset="0.1393" />
			<stop
   id="stop6367"
   style="stop-color:#edb74d;stop-opacity:1"
   offset="0.3741" />
			<stop
   id="stop6369"
   style="stop-color:#e6a844;stop-opacity:1"
   offset="0.48480001" />
			<stop
   id="stop6371"
   style="stop-color:#c96b25;stop-opacity:1"
   offset="1" />
		</linearGradient><linearGradient
     x1="47.9995"
     y1="8.0107002"
     x2="47.9995"
     y2="87.9897"
     id="linearGradient5104"
     xlink:href="#PINK_1_3_"
     gradientUnits="userSpaceOnUse" /><linearGradient
     x1="47.9995"
     y1="8.0107002"
     x2="47.9995"
     y2="90.757004"
     id="linearGradient5106"
     xlink:href="#VIOLET_2_3_"
     gradientUnits="userSpaceOnUse" /><linearGradient
     x1="47.9995"
     y1="9.7622004"
     x2="47.9995"
     y2="89.741203"
     id="linearGradient5108"
     xlink:href="#VIOLET_1_3_"
     gradientUnits="userSpaceOnUse" /><linearGradient
     x1="-54.5"
     y1="-35.875"
     x2="-19.75"
     y2="-35.875"
     id="linearGradient5117"
     xlink:href="#linearGradient5113"
     gradientUnits="userSpaceOnUse"
     gradientTransform="matrix(0.14388489,0,0,0.14184397,113.31386,2.588652)" /><linearGradient
     id="linearGradient5113-1"><stop
       id="stop5115-9"
       style="stop-color:#449311;stop-opacity:1"
       offset="0" /></linearGradient><linearGradient
     x1="-54.5"
     y1="-35.875"
     x2="-19.75"
     y2="-35.875"
     id="linearGradient5133"
     xlink:href="#linearGradient5113-1"
     gradientUnits="userSpaceOnUse"
     gradientTransform="matrix(0.14388489,0,0,0.14184397,113.31386,7.588652)" /><linearGradient
     id="linearGradient5113-1-5"><stop
       id="stop5115-9-0"
       style="stop-color:#128406;stop-opacity:1"
       offset="0" /></linearGradient><linearGradient
     x1="-54.5"
     y1="-35.875"
     x2="-19.75"
     y2="-35.875"
     id="linearGradient5164"
     xlink:href="#linearGradient5113-1-5"
     gradientUnits="userSpaceOnUse"
     gradientTransform="matrix(0.14388489,0,0,0.14184397,113.31386,12.588652)" /><linearGradient
     id="linearGradient5113-1-5-6"><stop
       id="stop5115-9-0-0"
       style="stop-color:#009351;stop-opacity:1"
       offset="0" /></linearGradient><linearGradient
     x1="-54.5"
     y1="-35.875"
     x2="-19.75"
     y2="-35.875"
     id="linearGradient5195"
     xlink:href="#linearGradient5113-1-5-6"
     gradientUnits="userSpaceOnUse"
     gradientTransform="matrix(0.14388489,0,0,0.14184397,113.31386,17.588652)" /><linearGradient
     x1="-54.5"
     y1="-35.875"
     x2="-19.75"
     y2="-35.875"
     id="linearGradient5195-4"
     xlink:href="#linearGradient5113-1-5-6-8"
     gradientUnits="userSpaceOnUse"
     gradientTransform="matrix(0.14388489,0,0,0.14184397,113.31386,37.588652)" /><linearGradient
     id="linearGradient5113-1-5-6-8"><stop
       id="stop5115-9-0-0-6"
       style="stop-color:#1b34b2;stop-opacity:1"
       offset="0" /></linearGradient><linearGradient
     x1="-54.5"
     y1="-35.875"
     x2="-19.75"
     y2="-35.875"
     id="linearGradient5164-5"
     xlink:href="#linearGradient5113-1-5-0"
     gradientUnits="userSpaceOnUse"
     gradientTransform="matrix(0.14388489,0,0,0.14184397,113.31386,32.588652)" /><linearGradient
     id="linearGradient5113-1-5-0"><stop
       id="stop5115-9-0-9"
       style="stop-color:#0066a8;stop-opacity:1"
       offset="0" /></linearGradient><linearGradient
     x1="-54.5"
     y1="-35.875"
     x2="-19.75"
     y2="-35.875"
     id="linearGradient5133-0"
     xlink:href="#linearGradient5113-1-0"
     gradientUnits="userSpaceOnUse"
     gradientTransform="matrix(0.14388489,0,0,0.14184397,113.31386,27.588652)" /><linearGradient
     id="linearGradient5113-1-0"><stop
       id="stop5115-9-6"
       style="stop-color:#0082b6;stop-opacity:1"
       offset="0" /></linearGradient><linearGradient
     id="linearGradient5113-3"><stop
       id="stop5115-8"
       style="stop-color:#0d9758;stop-opacity:1"
       offset="0" /></linearGradient><linearGradient
     x1="-54.5"
     y1="-35.875"
     x2="-19.75"
     y2="-35.875"
     id="linearGradient5238"
     xlink:href="#linearGradient5113-3"
     gradientUnits="userSpaceOnUse"
     gradientTransform="matrix(0.14388489,0,0,0.14184397,113.31386,22.588652)" /><linearGradient
     id="linearGradient5113-3-0"><stop
       id="stop5115-8-6"
       style="stop-color:#2c00a5;stop-opacity:1"
       offset="0" /></linearGradient><linearGradient
     x1="-54.5"
     y1="-35.875"
     x2="-19.75"
     y2="-35.875"
     id="linearGradient5133-0-6"
     xlink:href="#linearGradient5113-1-0-1"
     gradientUnits="userSpaceOnUse"
     gradientTransform="matrix(0.14388489,0,0,0.14184397,113.31386,47.588652)" /><linearGradient
     id="linearGradient5113-1-0-1"><stop
       id="stop5115-9-6-8"
       style="stop-color:#62226a;stop-opacity:1"
       offset="0" /></linearGradient><linearGradient
     x1="-54.5"
     y1="-35.875"
     x2="-19.75"
     y2="-35.875"
     id="linearGradient5164-5-4"
     xlink:href="#linearGradient5113-1-5-0-9"
     gradientUnits="userSpaceOnUse"
     gradientTransform="matrix(0.14388489,0,0,0.14184397,113.31386,52.588652)" /><linearGradient
     id="linearGradient5113-1-5-0-9"><stop
       id="stop5115-9-0-9-6"
       style="stop-color:#e50c98;stop-opacity:1"
       offset="0" /></linearGradient><linearGradient
     x1="-54.5"
     y1="-35.875"
     x2="-19.75"
     y2="-35.875"
     id="linearGradient5195-4-3"
     xlink:href="#linearGradient5113-1-5-6-8-7"
     gradientUnits="userSpaceOnUse"
     gradientTransform="matrix(0.14388489,0,0,0.14184397,113.31386,57.588652)" /><linearGradient
     id="linearGradient5113-1-5-6-8-7"><stop
       id="stop5115-9-0-0-6-8"
       style="stop-color:#ec297b;stop-opacity:1"
       offset="0" /></linearGradient><linearGradient
     x1="-54.5"
     y1="-35.875"
     x2="-19.75"
     y2="-35.875"
     id="linearGradient5305"
     xlink:href="#linearGradient5113-3-0"
     gradientUnits="userSpaceOnUse"
     gradientTransform="matrix(0.14388489,0,0,0.14184397,113.31386,42.588652)" /><linearGradient
     x1="-54.5"
     y1="-35.875"
     x2="-19.75"
     y2="-35.875"
     id="linearGradient5195-4-3-3"
     xlink:href="#linearGradient5113-1-5-6-8-7-5"
     gradientUnits="userSpaceOnUse"
     gradientTransform="matrix(0.14388489,0,0,0.14184397,113.31386,77.588652)" /><linearGradient
     id="linearGradient5113-1-5-6-8-7-5"><stop
       id="stop5115-9-0-0-6-8-9"
       style="stop-color:#ff7a0d;stop-opacity:1"
       offset="0" /></linearGradient><linearGradient
     x1="-54.5"
     y1="-35.875"
     x2="-19.75"
     y2="-35.875"
     id="linearGradient5164-5-4-8"
     xlink:href="#linearGradient5113-1-5-0-9-4"
     gradientUnits="userSpaceOnUse"
     gradientTransform="matrix(0.14388489,0,0,0.14184397,113.31386,72.588652)" /><linearGradient
     id="linearGradient5113-1-5-0-9-4"><stop
       id="stop5115-9-0-9-6-0"
       style="stop-color:#ff5b00;stop-opacity:1"
       offset="0" /></linearGradient><linearGradient
     x1="-54.5"
     y1="-35.875"
     x2="-19.75"
     y2="-35.875"
     id="linearGradient5133-0-6-7"
     xlink:href="#linearGradient5113-1-0-1-6"
     gradientUnits="userSpaceOnUse"
     gradientTransform="matrix(0.14388489,0,0,0.14184397,113.31386,67.588652)" /><linearGradient
     id="linearGradient5113-1-0-1-6"><stop
       id="stop5115-9-6-8-3"
       style="stop-color:#f74000;stop-opacity:1"
       offset="0" /></linearGradient><linearGradient
     id="linearGradient5113-3-0-1"><stop
       id="stop5115-8-6-5"
       style="stop-color:#e21429;stop-opacity:1"
       offset="0" /></linearGradient><linearGradient
     x1="-54.5"
     y1="-35.875"
     x2="-19.75"
     y2="-35.875"
     id="linearGradient5372"
     xlink:href="#linearGradient5113-3-0-1"
     gradientUnits="userSpaceOnUse"
     gradientTransform="matrix(0.14388489,0,0,0.14184397,113.31386,62.588652)" /><linearGradient
     x1="-54.5"
     y1="-35.875"
     x2="-19.75"
     y2="-35.875"
     id="linearGradient5195-4-3-3-7"
     xlink:href="#linearGradient5113-1-5-6-8-7-5-3"
     gradientUnits="userSpaceOnUse"
     gradientTransform="matrix(0.14388489,0,0,0.14184397,113.31386,97.588652)" /><linearGradient
     id="linearGradient5113-1-5-6-8-7-5-3"><stop
       id="stop5115-9-0-0-6-8-9-7"
       style="stop-color:#e0e0e0;stop-opacity:1"
       offset="0" /></linearGradient><linearGradient
     x1="-54.5"
     y1="-35.875"
     x2="-19.75"
     y2="-35.875"
     id="linearGradient5164-5-4-8-2"
     xlink:href="#linearGradient5113-1-5-0-9-4-6"
     gradientUnits="userSpaceOnUse"
     gradientTransform="matrix(0.14388489,0,0,0.14184397,113.31386,92.588652)" /><linearGradient
     id="linearGradient5113-1-5-0-9-4-6"><stop
       id="stop5115-9-0-9-6-0-0"
       style="stop-color:#e8e8e8;stop-opacity:1"
       offset="0" /></linearGradient><linearGradient
     x1="-54.5"
     y1="-35.875"
     x2="-19.75"
     y2="-35.875"
     id="linearGradient5133-0-6-7-1"
     xlink:href="#linearGradient5113-1-0-1-6-6"
     gradientUnits="userSpaceOnUse"
     gradientTransform="matrix(0.14388489,0,0,0.14184397,113.31386,87.588652)" /><linearGradient
     id="linearGradient5113-1-0-1-6-6"><stop
       id="stop5115-9-6-8-3-5"
       style="stop-color:#f7d303;stop-opacity:1"
       offset="0" /></linearGradient><linearGradient
     id="linearGradient5113-3-0-1-5"><stop
       id="stop5115-8-6-5-4"
       style="stop-color:#ffa300;stop-opacity:1"
       offset="0" /></linearGradient><linearGradient
     x1="-54.5"
     y1="-35.875"
     x2="-19.75"
     y2="-35.875"
     id="linearGradient5439"
     xlink:href="#linearGradient5113-3-0-1-5"
     gradientUnits="userSpaceOnUse"
     gradientTransform="matrix(0.14388489,0,0,0.14184397,113.31386,82.588652)" /><linearGradient
     id="linearGradient5113-1-5-0-9-4-6-4"><stop
       id="stop5115-9-0-9-6-0-0-6"
       style="stop-color:#d3d3d3;stop-opacity:1"
       offset="0" /></linearGradient><linearGradient
     x1="-54.5"
     y1="-35.875"
     x2="-19.75"
     y2="-35.875"
     id="linearGradient5195-4-3-3-7-0"
     xlink:href="#linearGradient5113-1-5-6-8-7-5-3-7"
     gradientUnits="userSpaceOnUse"
     gradientTransform="matrix(0.14388489,0,0,0.14184397,113.31386,107.58865)" /><linearGradient
     id="linearGradient5113-1-5-6-8-7-5-3-7"><stop
       id="stop5115-9-0-0-6-8-9-7-1"
       style="stop-color:#cecece;stop-opacity:1"
       offset="0" /></linearGradient><linearGradient
     x1="-54.5"
     y1="-35.875"
     x2="-19.75"
     y2="-35.875"
     id="linearGradient5498"
     xlink:href="#linearGradient5113-1-5-0-9-4-6-4"
     gradientUnits="userSpaceOnUse"
     gradientTransform="matrix(0.14388489,0,0,0.14184397,113.31386,102.58865)" /><linearGradient
     x1="48.452099"
     y1="39.117199"
     x2="48.452099"
     y2="70.455498"
     id="SVGID_1_"
     gradientUnits="userSpaceOnUse"><stop
       id="stop4392-1"
       style="stop-color:#fafcef;stop-opacity:1"
       offset="0.32319999" /><stop
       id="stop4394-7"
       style="stop-color:#d0cbc5;stop-opacity:1"
       offset="1" /></linearGradient><linearGradient
     x1="47.9995"
     y1="8.0107002"
     x2="47.9995"
     y2="87.9897"
     id="GRAY_5_1_"
     gradientUnits="userSpaceOnUse">
			<stop
   id="stop4296"
   style="stop-color:#838383;stop-opacity:1"
   offset="0.0364" />
			<stop
   id="stop4298"
   style="stop-color:#454545;stop-opacity:1"
   offset="0.46160001" />
			<stop
   id="stop4300"
   style="stop-color:#151515;stop-opacity:1"
   offset="1" />
		</linearGradient><linearGradient
     x1="47.9995"
     y1="8"
     x2="47.9995"
     y2="88.000504"
     id="HIGHLIGHT_GRA5_1_"
     gradientUnits="userSpaceOnUse">
			<stop
   id="stop4304"
   style="stop-color:#ffffff;stop-opacity:1"
   offset="0.0364" />
			<stop
   id="stop4306"
   style="stop-color:#e1e1e3;stop-opacity:1"
   offset="0.33660001" />
			<stop
   id="stop4308"
   style="stop-color:#96969a;stop-opacity:1"
   offset="0.9874" />
			<stop
   id="stop4310"
   style="stop-color:#949499;stop-opacity:1"
   offset="1" />
		</linearGradient><linearGradient
     x1="47.9995"
     y1="8"
     x2="47.9995"
     y2="88.000504"
     id="linearGradient4610"
     xlink:href="#HIGHLIGHT_GRA5_1_"
     gradientUnits="userSpaceOnUse" /><linearGradient
     x1="47.9995"
     y1="8.0107002"
     x2="47.9995"
     y2="87.9897"
     id="linearGradient4613"
     xlink:href="#GRAY_5_1_"
     gradientUnits="userSpaceOnUse" /><linearGradient
     id="linearGradient3759"><stop
       id="stop3761"
       style="stop-color:#e30413;stop-opacity:1"
       offset="0" /><stop
       id="stop3763"
       style="stop-color:#5b0000;stop-opacity:1"
       offset="1" /></linearGradient><radialGradient
     cx="115.4866"
     cy="261.43259"
     r="19.966417"
     fx="115.4866"
     fy="261.43259"
     id="radialGradient3069"
     xlink:href="#linearGradient3759"
     gradientUnits="userSpaceOnUse"
     gradientTransform="matrix(1,0,0,2.001682,-50.421095,-432.98179)" /><radialGradient
     cx="115.4866"
     cy="261.43259"
     r="19.966417"
     fx="115.4866"
     fy="261.43259"
     id="radialGradient3868-4"
     xlink:href="#linearGradient3759-7"
     gradientUnits="userSpaceOnUse"
     gradientTransform="matrix(1,0,0,2.001682,-119.01408,-170.32304)" /><linearGradient
     id="linearGradient3759-7"><stop
       id="stop3761-7"
       style="stop-color:#e30413;stop-opacity:1"
       offset="0" /><stop
       id="stop3763-5"
       style="stop-color:#5b0000;stop-opacity:1"
       offset="1" /></linearGradient><radialGradient
     cx="115.4866"
     cy="261.43259"
     r="19.966417"
     fx="115.4866"
     fy="261.43259"
     id="radialGradient4657"
     xlink:href="#linearGradient3759-7"
     gradientUnits="userSpaceOnUse"
     gradientTransform="matrix(1,0,0,2.001682,-119.01408,-170.32304)" /><radialGradient
     cx="113.21611"
     cy="477.92517"
     r="19.740158"
     fx="113.21611"
     fy="477.92517"
     id="radialGradient3894"
     xlink:href="#linearGradient3759-3"
     gradientUnits="userSpaceOnUse"
     gradientTransform="translate(19.014085,-101.40838)" /><linearGradient
     id="linearGradient3759-3"><stop
       id="stop3761-1"
       style="stop-color:#e30413;stop-opacity:1"
       offset="0" /><stop
       id="stop3763-58"
       style="stop-color:#5b0000;stop-opacity:1"
       offset="1" /></linearGradient><linearGradient
     id="linearGradient3759-8"><stop
       id="stop3761-5"
       style="stop-color:#e30413;stop-opacity:1"
       offset="0" /><stop
       id="stop3763-3"
       style="stop-color:#5b0000;stop-opacity:1"
       offset="1" /></linearGradient><radialGradient
     cx="188.73239"
     cy="299.08359"
     r="127.29475"
     fx="188.73239"
     fy="299.08359"
     id="radialGradient3128"
     xlink:href="#linearGradient3759-8"
     gradientUnits="userSpaceOnUse"
     gradientTransform="matrix(1,0,0,0.86737307,0,39.66654)" /><radialGradient
     cx="113.21611"
     cy="477.92517"
     r="19.740158"
     fx="113.21611"
     fy="477.92517"
     id="radialGradient3894-5"
     xlink:href="#linearGradient3759-2"
     gradientUnits="userSpaceOnUse"
     gradientTransform="translate(19.014085,-101.40838)" /><linearGradient
     id="linearGradient3759-2"><stop
       id="stop3761-2"
       style="stop-color:#e30413;stop-opacity:1"
       offset="0" /><stop
       id="stop3763-0"
       style="stop-color:#5b0000;stop-opacity:1"
       offset="1" /></linearGradient><radialGradient
     cx="113.21611"
     cy="477.92517"
     r="19.740158"
     fx="113.21611"
     fy="477.92517"
     id="radialGradient3894-5-2"
     xlink:href="#linearGradient3759-2-0"
     gradientUnits="userSpaceOnUse"
     gradientTransform="translate(19.014085,-101.40838)" /><linearGradient
     id="linearGradient3759-2-0"><stop
       id="stop3761-2-8"
       style="stop-color:#e30413;stop-opacity:1"
       offset="0" /><stop
       id="stop3763-0-8"
       style="stop-color:#5b0000;stop-opacity:1"
       offset="1" /></linearGradient><radialGradient
     cx="113.21611"
     cy="477.92517"
     r="19.740158"
     fx="113.21611"
     fy="477.92517"
     id="radialGradient3894-5-8"
     xlink:href="#linearGradient3759-2-5"
     gradientUnits="userSpaceOnUse"
     gradientTransform="translate(19.014085,-101.40838)" /><linearGradient
     id="linearGradient3759-2-5"><stop
       id="stop3761-2-1"
       style="stop-color:#e30413;stop-opacity:1"
       offset="0" /><stop
       id="stop3763-0-4"
       style="stop-color:#5b0000;stop-opacity:1"
       offset="1" /></linearGradient></defs>
<linearGradient
   x1="47.9995"
   y1="8.0107002"
   x2="47.9995"
   y2="87.9897"
   id="RED_x2F_ORANGE_5_2_"
   gradientUnits="userSpaceOnUse">
	<stop
   id="stop3054"
   style="stop-color:#ffdb62;stop-opacity:1"
   offset="0" />
	<stop
   id="stop3056"
   style="stop-color:#fad15c;stop-opacity:1"
   offset="0.1393" />
	<stop
   id="stop3058"
   style="stop-color:#edb74d;stop-opacity:1"
   offset="0.3741" />
	<stop
   id="stop3060"
   style="stop-color:#e6a844;stop-opacity:1"
   offset="0.48480001" />
	<stop
   id="stop3062"
   style="stop-color:#c96b25;stop-opacity:1"
   offset="1" />
</linearGradient>

<g
   id="layer5"
   style="display:inline"><rect
     width="96"
     height="96"
     x="0"
     y="0"
     id="rect3119"
     style="fill:#000000;fill-opacity:0;stroke:none;display:inline" /></g><g
   id="layer4"
   style="display:inline"><path
     d="m 88.023,49 c 0,29.633 -10.364,40 -40,40 -29.635,0 -40,-10.367 -40,-40 0,-29.634 10.366,-40 40,-40 29.636,0 40,10.365 40,40 z"
     id="SHADOW"
     style="opacity:0.4" /></g><g
   id="layer13"
   style="display:inline"><path
     d="m 8,47.989 c 0,29.633 10.365,40 40,40 29.637,0 40,-10.367 40,-40 C 88,19.004 78.074,8.459 49.909,8.01 H 46.092 C 17.928,8.459 8,19.004 8,47.989 z"
     id="GRAY_5"
     style="fill:url(#linearGradient4613);fill-opacity:1;fill-rule:evenodd" /><path
     d="M 48,8 C 18.365,8 8,18.365 8,48 8,77.633 18.365,88 48,88 77.637,88 88,77.633 88,48 88,18.365 77.637,8 48,8 z m 0,79.023 C 18.842,87.023 9,77.176 9,48 9,18.824 18.842,8.977 48,8.977 77.158,8.977 87,18.824 87,48 87,77.176 77.158,87.023 48,87.023 z"
     id="HIGHLIGHT_GRA5"
     style="opacity:0.25;fill:url(#linearGradient4610)" /></g><g
   id="layer7"
   style="display:inline"><g
     id="g5033"><g
       transform="translate(-3.55044e-4,1.0003508)"
       id="g5035"
       style="opacity:0.03450299;fill:#000000;fill-opacity:1;stroke:#000000;stroke-opacity:1"><g
         transform="matrix(1.2373249,0,0,1.2373249,-115.61171,-417.87353)"
         id="g5037"
         style="fill:#000000;fill-opacity:1;stroke:#000000;stroke-opacity:1;display:inline"><path
           d="m 112.49004,356.77658 c 0.40256,21.94396 9.07421,39.48031 19.73284,39.48031 10.65865,0 19.34493,-17.5363 19.74747,-39.48031 -0.52934,16.32851 -9.17337,29.32152 -19.74747,29.32152 -10.57411,0 -19.20351,-12.99301 -19.73284,-29.32152 z"
           id="path5039"
           style="opacity:0.5;fill:#000000;fill-opacity:1;stroke:#000000;stroke-opacity:1" /><path
           d="m 112.49004,356.77658 c 0.40256,21.94396 9.07421,39.48031 19.73284,39.48031 10.65865,0 19.34493,-17.5363 19.74747,-39.48031 -0.52934,16.32851 -9.17337,29.32152 -19.74747,29.32152 -10.57411,0 -19.20351,-12.99301 -19.73284,-29.32152 z"
           id="path5041"
           style="fill:#000000;fill-opacity:1;stroke:#000000;stroke-width:1;stroke-linecap:round;stroke-linejoin:miter;stroke-miterlimit:4;stroke-opacity:1;stroke-dasharray:none;stroke-dashoffset:0" /></g></g><g
       transform="translate(-3.55044e-4,1.0003508)"
       id="g5043"
       style="opacity:0.03450299;fill:#000000;fill-opacity:1;stroke:#000000;stroke-opacity:1"><g
         transform="matrix(1.2373249,0,0,1.2373249,-115.61171,-417.87353)"
         id="g5045"
         style="fill:#000000;fill-opacity:1;stroke:#000000;stroke-opacity:1;display:inline"><path
           d="m 112.49004,356.77658 c 0.40256,21.94396 9.07421,39.48031 19.73284,39.48031 10.65865,0 19.34493,-17.5363 19.74747,-39.48031 -0.52934,16.32851 -9.17337,29.32152 -19.74747,29.32152 -10.57411,0 -19.20351,-12.99301 -19.73284,-29.32152 z"
           id="path5047"
           style="opacity:0.5;fill:#000000;fill-opacity:1;stroke:#000000;stroke-opacity:1" /><path
           d="m 112.49004,356.77658 c 0.40256,21.94396 9.07421,39.48031 19.73284,39.48031 10.65865,0 19.34493,-17.5363 19.74747,-39.48031 -0.52934,16.32851 -9.17337,29.32152 -19.74747,29.32152 -10.57411,0 -19.20351,-12.99301 -19.73284,-29.32152 z"
           id="path5049"
           style="fill:#000000;fill-opacity:1;stroke:#000000;stroke-width:1;stroke-linecap:round;stroke-linejoin:miter;stroke-miterlimit:4;stroke-opacity:1;stroke-dasharray:none;stroke-dashoffset:0" /></g></g><g
       transform="translate(-3.55044e-4,1.0003508)"
       id="g5051"
       style="opacity:0.03450299;fill:#000000;fill-opacity:1;stroke:#000000;stroke-opacity:1"><g
         transform="matrix(1.2373249,0,0,1.2373249,-115.61171,-417.87353)"
         id="g5053"
         style="fill:#000000;fill-opacity:1;stroke:#000000;stroke-opacity:1;display:inline"><path
           d="m 112.49004,356.77658 c 0.40256,21.94396 9.07421,39.48031 19.73284,39.48031 10.65865,0 19.34493,-17.5363 19.74747,-39.48031 -0.52934,16.32851 -9.17337,29.32152 -19.74747,29.32152 -10.57411,0 -19.20351,-12.99301 -19.73284,-29.32152 z"
           id="path5055"
           style="opacity:0.5;fill:#000000;fill-opacity:1;stroke:#000000;stroke-opacity:1" /><path
           d="m 112.49004,356.77658 c 0.40256,21.94396 9.07421,39.48031 19.73284,39.48031 10.65865,0 19.34493,-17.5363 19.74747,-39.48031 -0.52934,16.32851 -9.17337,29.32152 -19.74747,29.32152 -10.57411,0 -19.20351,-12.99301 -19.73284,-29.32152 z"
           id="path5057"
           style="fill:#000000;fill-opacity:1;stroke:#000000;stroke-width:1;stroke-linecap:round;stroke-linejoin:miter;stroke-miterlimit:4;stroke-opacity:1;stroke-dasharray:none;stroke-dashoffset:0" /></g></g><g
       transform="translate(-3.55044e-4,1.0003508)"
       id="g5059"
       style="opacity:0.03450299;fill:#000000;fill-opacity:1;stroke:#000000;stroke-opacity:1"><g
         transform="matrix(1.2373249,0,0,1.2373249,-115.61171,-417.87353)"
         id="g5061"
         style="fill:#000000;fill-opacity:1;stroke:#000000;stroke-opacity:1;display:inline"><path
           d="m 112.49004,356.77658 c 0.40256,21.94396 9.07421,39.48031 19.73284,39.48031 10.65865,0 19.34493,-17.5363 19.74747,-39.48031 -0.52934,16.32851 -9.17337,29.32152 -19.74747,29.32152 -10.57411,0 -19.20351,-12.99301 -19.73284,-29.32152 z"
           id="path5063"
           style="opacity:0.5;fill:#000000;fill-opacity:1;stroke:#000000;stroke-opacity:1" /><path
           d="m 112.49004,356.77658 c 0.40256,21.94396 9.07421,39.48031 19.73284,39.48031 10.65865,0 19.34493,-17.5363 19.74747,-39.48031 -0.52934,16.32851 -9.17337,29.32152 -19.74747,29.32152 -10.57411,0 -19.20351,-12.99301 -19.73284,-29.32152 z"
           id="path5065"
           style="fill:#000000;fill-opacity:1;stroke:#000000;stroke-width:1;stroke-linecap:round;stroke-linejoin:miter;stroke-miterlimit:4;stroke-opacity:1;stroke-dasharray:none;stroke-dashoffset:0" /></g></g><g
       transform="translate(-3.55044e-4,1.0003508)"
       id="g5067"
       style="opacity:0.03450299;fill:#000000;fill-opacity:1;stroke:#000000;stroke-opacity:1"><g
         transform="matrix(1.2373249,0,0,1.2373249,-115.61171,-417.87353)"
         id="g5069"
         style="fill:#000000;fill-opacity:1;stroke:#000000;stroke-opacity:1;display:inline"><path
           d="m 112.49004,356.77658 c 0.40256,21.94396 9.07421,39.48031 19.73284,39.48031 10.65865,0 19.34493,-17.5363 19.74747,-39.48031 -0.52934,16.32851 -9.17337,29.32152 -19.74747,29.32152 -10.57411,0 -19.20351,-12.99301 -19.73284,-29.32152 z"
           id="path5071"
           style="opacity:0.5;fill:#000000;fill-opacity:1;stroke:#000000;stroke-opacity:1" /><path
           d="m 112.49004,356.77658 c 0.40256,21.94396 9.07421,39.48031 19.73284,39.48031 10.65865,0 19.34493,-17.5363 19.74747,-39.48031 -0.52934,16.32851 -9.17337,29.32152 -19.74747,29.32152 -10.57411,0 -19.20351,-12.99301 -19.73284,-29.32152 z"
           id="path5073"
           style="fill:#000000;fill-opacity:1;stroke:#000000;stroke-width:1;stroke-linecap:round;stroke-linejoin:miter;stroke-miterlimit:4;stroke-opacity:1;stroke-dasharray:none;stroke-dashoffset:0" /></g></g><g
       transform="translate(-3.55044e-4,1.0003508)"
       id="g5075"
       style="opacity:0.03450299;fill:#000000;fill-opacity:1;stroke:#000000;stroke-opacity:1"><g
         transform="matrix(1.2373249,0,0,1.2373249,-115.61171,-417.87353)"
         id="g5077"
         style="fill:#000000;fill-opacity:1;stroke:#000000;stroke-opacity:1;display:inline"><path
           d="m 112.49004,356.77658 c 0.40256,21.94396 9.07421,39.48031 19.73284,39.48031 10.65865,0 19.34493,-17.5363 19.74747,-39.48031 -0.52934,16.32851 -9.17337,29.32152 -19.74747,29.32152 -10.57411,0 -19.20351,-12.99301 -19.73284,-29.32152 z"
           id="path5079"
           style="opacity:0.5;fill:#000000;fill-opacity:1;stroke:#000000;stroke-opacity:1" /><path
           d="m 112.49004,356.77658 c 0.40256,21.94396 9.07421,39.48031 19.73284,39.48031 10.65865,0 19.34493,-17.5363 19.74747,-39.48031 -0.52934,16.32851 -9.17337,29.32152 -19.74747,29.32152 -10.57411,0 -19.20351,-12.99301 -19.73284,-29.32152 z"
           id="path5081"
           style="fill:#000000;fill-opacity:1;stroke:#000000;stroke-width:1;stroke-linecap:round;stroke-linejoin:miter;stroke-miterlimit:4;stroke-opacity:1;stroke-dasharray:none;stroke-dashoffset:0" /></g></g><g
       transform="translate(-3.55044e-4,1.0003508)"
       id="g5083"
       style="opacity:0.03450299;fill:#000000;fill-opacity:1;stroke:#000000;stroke-opacity:1"><g
         transform="matrix(1.2373249,0,0,1.2373249,-115.61171,-417.87353)"
         id="g5085"
         style="fill:#000000;fill-opacity:1;stroke:#000000;stroke-opacity:1;display:inline"><path
           d="m 112.49004,356.77658 c 0.40256,21.94396 9.07421,39.48031 19.73284,39.48031 10.65865,0 19.34493,-17.5363 19.74747,-39.48031 -0.52934,16.32851 -9.17337,29.32152 -19.74747,29.32152 -10.57411,0 -19.20351,-12.99301 -19.73284,-29.32152 z"
           id="path5087"
           style="opacity:0.5;fill:#000000;fill-opacity:1;stroke:#000000;stroke-opacity:1" /><path
           d="m 112.49004,356.77658 c 0.40256,21.94396 9.07421,39.48031 19.73284,39.48031 10.65865,0 19.34493,-17.5363 19.74747,-39.48031 -0.52934,16.32851 -9.17337,29.32152 -19.74747,29.32152 -10.57411,0 -19.20351,-12.99301 -19.73284,-29.32152 z"
           id="path5089"
           style="fill:#000000;fill-opacity:1;stroke:#000000;stroke-width:1;stroke-linecap:round;stroke-linejoin:miter;stroke-miterlimit:4;stroke-opacity:1;stroke-dasharray:none;stroke-dashoffset:0" /></g></g><g
       transform="translate(-3.55044e-4,1.0003508)"
       id="g5091"
       style="opacity:0.03450299;fill:#000000;fill-opacity:1;stroke:#000000;stroke-opacity:1"><g
         transform="matrix(1.2373249,0,0,1.2373249,-115.61171,-417.87353)"
         id="g5093"
         style="fill:#000000;fill-opacity:1;stroke:#000000;stroke-opacity:1;display:inline"><path
           d="m 112.49004,356.77658 c 0.40256,21.94396 9.07421,39.48031 19.73284,39.48031 10.65865,0 19.34493,-17.5363 19.74747,-39.48031 -0.52934,16.32851 -9.17337,29.32152 -19.74747,29.32152 -10.57411,0 -19.20351,-12.99301 -19.73284,-29.32152 z"
           id="path5095"
           style="opacity:0.5;fill:#000000;fill-opacity:1;stroke:#000000;stroke-opacity:1" /><path
           d="m 112.49004,356.77658 c 0.40256,21.94396 9.07421,39.48031 19.73284,39.48031 10.65865,0 19.34493,-17.5363 19.74747,-39.48031 -0.52934,16.32851 -9.17337,29.32152 -19.74747,29.32152 -10.57411,0 -19.20351,-12.99301 -19.73284,-29.32152 z"
           id="path5097"
           style="fill:#000000;fill-opacity:1;stroke:#000000;stroke-width:1;stroke-linecap:round;stroke-linejoin:miter;stroke-miterlimit:4;stroke-opacity:1;stroke-dasharray:none;stroke-dashoffset:0" /></g></g><g
       transform="translate(-3.55044e-4,1.0003508)"
       id="g5099"
       style="opacity:0.03450299;fill:#000000;fill-opacity:1;stroke:#000000;stroke-opacity:1"><g
         transform="matrix(1.2373249,0,0,1.2373249,-115.61171,-417.87353)"
         id="g5101"
         style="fill:#000000;fill-opacity:1;stroke:#000000;stroke-opacity:1;display:inline"><path
           d="m 112.49004,356.77658 c 0.40256,21.94396 9.07421,39.48031 19.73284,39.48031 10.65865,0 19.34493,-17.5363 19.74747,-39.48031 -0.52934,16.32851 -9.17337,29.32152 -19.74747,29.32152 -10.57411,0 -19.20351,-12.99301 -19.73284,-29.32152 z"
           id="path5103"
           style="opacity:0.5;fill:#000000;fill-opacity:1;stroke:#000000;stroke-opacity:1" /><path
           d="m 112.49004,356.77658 c 0.40256,21.94396 9.07421,39.48031 19.73284,39.48031 10.65865,0 19.34493,-17.5363 19.74747,-39.48031 -0.52934,16.32851 -9.17337,29.32152 -19.74747,29.32152 -10.57411,0 -19.20351,-12.99301 -19.73284,-29.32152 z"
           id="path5105"
           style="fill:#000000;fill-opacity:1;stroke:#000000;stroke-width:1;stroke-linecap:round;stroke-linejoin:miter;stroke-miterlimit:4;stroke-opacity:1;stroke-dasharray:none;stroke-dashoffset:0" /></g></g><g
       transform="translate(-3.55044e-4,1.0003508)"
       id="g5107"
       style="opacity:0.03450299;fill:#000000;fill-opacity:1;stroke:#000000;stroke-opacity:1"><g
         transform="matrix(1.2373249,0,0,1.2373249,-115.61171,-417.87353)"
         id="g5109"
         style="fill:#000000;fill-opacity:1;stroke:#000000;stroke-opacity:1;display:inline"><path
           d="m 112.49004,356.77658 c 0.40256,21.94396 9.07421,39.48031 19.73284,39.48031 10.65865,0 19.34493,-17.5363 19.74747,-39.48031 -0.52934,16.32851 -9.17337,29.32152 -19.74747,29.32152 -10.57411,0 -19.20351,-12.99301 -19.73284,-29.32152 z"
           id="path5111"
           style="opacity:0.5;fill:#000000;fill-opacity:1;stroke:#000000;stroke-opacity:1" /><path
           d="m 112.49004,356.77658 c 0.40256,21.94396 9.07421,39.48031 19.73284,39.48031 10.65865,0 19.34493,-17.5363 19.74747,-39.48031 -0.52934,16.32851 -9.17337,29.32152 -19.74747,29.32152 -10.57411,0 -19.20351,-12.99301 -19.73284,-29.32152 z"
           id="path5113"
           style="fill:#000000;fill-opacity:1;stroke:#000000;stroke-width:1;stroke-linecap:round;stroke-linejoin:miter;stroke-miterlimit:4;stroke-opacity:1;stroke-dasharray:none;stroke-dashoffset:0" /></g></g><g
       transform="translate(-3.55044e-4,1.0003508)"
       id="g5115"
       style="opacity:0.03450299;fill:#000000;fill-opacity:1;stroke:#000000;stroke-opacity:1"><g
         transform="matrix(1.2373249,0,0,1.2373249,-115.61171,-417.87353)"
         id="g5117"
         style="fill:#000000;fill-opacity:1;stroke:#000000;stroke-opacity:1;display:inline"><path
           d="m 112.49004,356.77658 c 0.40256,21.94396 9.07421,39.48031 19.73284,39.48031 10.65865,0 19.34493,-17.5363 19.74747,-39.48031 -0.52934,16.32851 -9.17337,29.32152 -19.74747,29.32152 -10.57411,0 -19.20351,-12.99301 -19.73284,-29.32152 z"
           id="path5119"
           style="opacity:0.5;fill:#000000;fill-opacity:1;stroke:#000000;stroke-opacity:1" /><path
           d="m 112.49004,356.77658 c 0.40256,21.94396 9.07421,39.48031 19.73284,39.48031 10.65865,0 19.34493,-17.5363 19.74747,-39.48031 -0.52934,16.32851 -9.17337,29.32152 -19.74747,29.32152 -10.57411,0 -19.20351,-12.99301 -19.73284,-29.32152 z"
           id="path5121"
           style="fill:#000000;fill-opacity:1;stroke:#000000;stroke-width:1;stroke-linecap:round;stroke-linejoin:miter;stroke-miterlimit:4;stroke-opacity:1;stroke-dasharray:none;stroke-dashoffset:0" /></g></g><g
       transform="translate(-3.55044e-4,1.0003508)"
       id="g5123"
       style="opacity:0.03450299;fill:#000000;fill-opacity:1;stroke:#000000;stroke-opacity:1"><g
         transform="matrix(1.2373249,0,0,1.2373249,-115.61171,-417.87353)"
         id="g5125"
         style="fill:#000000;fill-opacity:1;stroke:#000000;stroke-opacity:1;display:inline"><path
           d="m 112.49004,356.77658 c 0.40256,21.94396 9.07421,39.48031 19.73284,39.48031 10.65865,0 19.34493,-17.5363 19.74747,-39.48031 -0.52934,16.32851 -9.17337,29.32152 -19.74747,29.32152 -10.57411,0 -19.20351,-12.99301 -19.73284,-29.32152 z"
           id="path5127"
           style="opacity:0.5;fill:#000000;fill-opacity:1;stroke:#000000;stroke-opacity:1" /><path
           d="m 112.49004,356.77658 c 0.40256,21.94396 9.07421,39.48031 19.73284,39.48031 10.65865,0 19.34493,-17.5363 19.74747,-39.48031 -0.52934,16.32851 -9.17337,29.32152 -19.74747,29.32152 -10.57411,0 -19.20351,-12.99301 -19.73284,-29.32152 z"
           id="path5129"
           style="fill:#000000;fill-opacity:1;stroke:#000000;stroke-width:1;stroke-linecap:round;stroke-linejoin:miter;stroke-miterlimit:4;stroke-opacity:1;stroke-dasharray:none;stroke-dashoffset:0" /></g></g><g
       transform="translate(-3.55044e-4,1.0003508)"
       id="g5131"
       style="opacity:0.03450299;fill:#000000;fill-opacity:1;stroke:#000000;stroke-opacity:1"><g
         transform="matrix(1.2373249,0,0,1.2373249,-115.61171,-417.87353)"
         id="g5133"
         style="fill:#000000;fill-opacity:1;stroke:#000000;stroke-opacity:1;display:inline"><path
           d="m 112.49004,356.77658 c 0.40256,21.94396 9.07421,39.48031 19.73284,39.48031 10.65865,0 19.34493,-17.5363 19.74747,-39.48031 -0.52934,16.32851 -9.17337,29.32152 -19.74747,29.32152 -10.57411,0 -19.20351,-12.99301 -19.73284,-29.32152 z"
           id="path5135"
           style="opacity:0.5;fill:#000000;fill-opacity:1;stroke:#000000;stroke-opacity:1" /><path
           d="m 112.49004,356.77658 c 0.40256,21.94396 9.07421,39.48031 19.73284,39.48031 10.65865,0 19.34493,-17.5363 19.74747,-39.48031 -0.52934,16.32851 -9.17337,29.32152 -19.74747,29.32152 -10.57411,0 -19.20351,-12.99301 -19.73284,-29.32152 z"
           id="path5137"
           style="fill:#000000;fill-opacity:1;stroke:#000000;stroke-width:1;stroke-linecap:round;stroke-linejoin:miter;stroke-miterlimit:4;stroke-opacity:1;stroke-dasharray:none;stroke-dashoffset:0" /></g></g><g
       transform="translate(-3.55044e-4,1.0003508)"
       id="g5139"
       style="opacity:0.03450299;fill:#000000;fill-opacity:1;stroke:#000000;stroke-opacity:1"><g
         transform="matrix(1.2373249,0,0,1.2373249,-115.61171,-417.87353)"
         id="g5141"
         style="fill:#000000;fill-opacity:1;stroke:#000000;stroke-opacity:1;display:inline"><path
           d="m 112.49004,356.77658 c 0.40256,21.94396 9.07421,39.48031 19.73284,39.48031 10.65865,0 19.34493,-17.5363 19.74747,-39.48031 -0.52934,16.32851 -9.17337,29.32152 -19.74747,29.32152 -10.57411,0 -19.20351,-12.99301 -19.73284,-29.32152 z"
           id="path5143"
           style="opacity:0.5;fill:#000000;fill-opacity:1;stroke:#000000;stroke-opacity:1" /><path
           d="m 112.49004,356.77658 c 0.40256,21.94396 9.07421,39.48031 19.73284,39.48031 10.65865,0 19.34493,-17.5363 19.74747,-39.48031 -0.52934,16.32851 -9.17337,29.32152 -19.74747,29.32152 -10.57411,0 -19.20351,-12.99301 -19.73284,-29.32152 z"
           id="path5145"
           style="fill:#000000;fill-opacity:1;stroke:#000000;stroke-width:1;stroke-linecap:round;stroke-linejoin:miter;stroke-miterlimit:4;stroke-opacity:1;stroke-dasharray:none;stroke-dashoffset:0" /></g></g><g
       transform="translate(-3.55044e-4,1.0003508)"
       id="g5147"
       style="opacity:0.03450299;fill:#000000;fill-opacity:1;stroke:#000000;stroke-opacity:1"><g
         transform="matrix(1.2373249,0,0,1.2373249,-115.61171,-417.87353)"
         id="g5149"
         style="fill:#000000;fill-opacity:1;stroke:#000000;stroke-opacity:1;display:inline"><path
           d="m 112.49004,356.77658 c 0.40256,21.94396 9.07421,39.48031 19.73284,39.48031 10.65865,0 19.34493,-17.5363 19.74747,-39.48031 -0.52934,16.32851 -9.17337,29.32152 -19.74747,29.32152 -10.57411,0 -19.20351,-12.99301 -19.73284,-29.32152 z"
           id="path5151"
           style="opacity:0.5;fill:#000000;fill-opacity:1;stroke:#000000;stroke-opacity:1" /><path
           d="m 112.49004,356.77658 c 0.40256,21.94396 9.07421,39.48031 19.73284,39.48031 10.65865,0 19.34493,-17.5363 19.74747,-39.48031 -0.52934,16.32851 -9.17337,29.32152 -19.74747,29.32152 -10.57411,0 -19.20351,-12.99301 -19.73284,-29.32152 z"
           id="path5153"
           style="fill:#000000;fill-opacity:1;stroke:#000000;stroke-width:1;stroke-linecap:round;stroke-linejoin:miter;stroke-miterlimit:4;stroke-opacity:1;stroke-dasharray:none;stroke-dashoffset:0" /></g></g></g></g><g
   id="layer2"
   style="display:inline"><g
     transform="matrix(1.2373249,0,0,1.2373249,-115.61171,-417.87353)"
     id="g3092"><path
       d="m 112.49004,356.77658 c 0.40256,21.94396 9.07421,39.48031 19.73284,39.48031 10.65865,0 19.34493,-17.5363 19.74747,-39.48031 -0.52934,16.32851 -9.17337,29.32152 -19.74747,29.32152 -10.57411,0 -19.20351,-12.99301 -19.73284,-29.32152 z"
       id="path3890"
       style="opacity:0.5;fill:url(#radialGradient3894-5);fill-opacity:1;stroke:none" /><path
       d="m 112.49004,356.77658 c 0.40256,21.94396 9.07421,39.48031 19.73284,39.48031 10.65865,0 19.34493,-17.5363 19.74747,-39.48031 -0.52934,16.32851 -9.17337,29.32152 -19.74747,29.32152 -10.57411,0 -19.20351,-12.99301 -19.73284,-29.32152 z"
       id="path3892"
       style="fill:none;stroke:#ff0000;stroke-width:1;stroke-linecap:round;stroke-linejoin:miter;stroke-miterlimit:4;stroke-opacity:1;stroke-dasharray:none;stroke-dashoffset:0" /></g></g></svg>