<?xml version="1.0" encoding="UTF-8" standalone="no"?>
<!-- Created with Inkscape (http://www.inkscape.org/) -->

<svg
   xmlns:dc="http://purl.org/dc/elements/1.1/"
   xmlns:cc="http://creativecommons.org/ns#"
   xmlns:rdf="http://www.w3.org/1999/02/22-rdf-syntax-ns#"
   xmlns:svg="http://www.w3.org/2000/svg"
   xmlns="http://www.w3.org/2000/svg"
   xmlns:xlink="http://www.w3.org/1999/xlink"
   xmlns:sodipodi="http://sodipodi.sourceforge.net/DTD/sodipodi-0.dtd"
   xmlns:inkscape="http://www.inkscape.org/namespaces/inkscape"
   width="744.09448819"
   height="1052.3622047"
   id="svg2"
   version="1.1"
   inkscape:version="0.48.2 r9819"
   sodipodi:docname="drawing.svg">
  <defs
     id="defs4">
    <linearGradient
       id="linearGradient3862">
      <stop
         style="stop-color:#ff0000;stop-opacity:1;"
         offset="0"
         id="stop3864" />
      <stop
         style="stop-color:#6e0000;stop-opacity:1;"
         offset="1"
         id="stop3866" />
    </linearGradient>
    <linearGradient
       id="linearGradient3794">
      <stop
         id="stop3796"
         offset="0"
         style="stop-color:#0519f2;stop-opacity:1;" />
      <stop
         id="stop3798"
         offset="1"
         style="stop-color:#08071d;stop-opacity:1;" />
    </linearGradient>
    <linearGradient
       id="linearGradient3759">
      <stop
         style="stop-color:#e30413;stop-opacity:1;"
         offset="0"
         id="stop3761" />
      <stop
         style="stop-color:#5b0000;stop-opacity:1;"
         offset="1"
         id="stop3763" />
    </linearGradient>
    <radialGradient
       inkscape:collect="always"
       xlink:href="#linearGradient3759"
       id="radialGradient3765"
       cx="188.73239"
       cy="299.08359"
       fx="188.73239"
       fy="299.08359"
       r="127.29475"
       gradientTransform="matrix(1,0,0,0.86737307,0,39.66654)"
       gradientUnits="userSpaceOnUse" />
    <radialGradient
       inkscape:collect="always"
       xlink:href="#linearGradient3759"
       id="radialGradient3799"
       cx="250.93715"
       cy="491.62537"
       fx="250.93715"
       fy="491.62537"
       r="23.055374"
       gradientTransform="matrix(1,0,0,1.1682315,0,-82.706867)"
       gradientUnits="userSpaceOnUse" />
    <radialGradient
       inkscape:collect="always"
       xlink:href="#linearGradient3759"
       id="radialGradient3803"
       gradientUnits="userSpaceOnUse"
       gradientTransform="matrix(1,0,0,1.1682315,0,-82.706867)"
       cx="250.93715"
       cy="491.62537"
       fx="250.93715"
       fy="491.62537"
       r="23.055374" />
    <linearGradient
       inkscape:collect="always"
       xlink:href="#linearGradient3794"
       id="linearGradient3792"
       x1="374.90625"
       y1="361.125"
       x2="460.3125"
       y2="361.125"
       gradientUnits="userSpaceOnUse" />
    <linearGradient
       inkscape:collect="always"
       xlink:href="#linearGradient3794"
       id="linearGradient3806"
       x1="58.195148"
       y1="356.58752"
       x2="105.88935"
       y2="356.58752"
       gradientUnits="userSpaceOnUse" />
    <radialGradient
       inkscape:collect="always"
       xlink:href="#linearGradient3759"
       id="radialGradient3868"
       cx="115.4866"
       cy="261.43259"
       fx="115.4866"
       fy="261.43259"
       r="19.966417"
       gradientTransform="matrix(1,0,0,2.001682,-119.01408,-170.32304)"
       gradientUnits="userSpaceOnUse" />
    <radialGradient
       inkscape:collect="always"
       xlink:href="#linearGradient3794"
       id="radialGradient3878"
       gradientUnits="userSpaceOnUse"
       gradientTransform="matrix(1,0,0,2.001682,-61.01408,-170.32304)"
       cx="115.4866"
       cy="261.43259"
       fx="115.4866"
       fy="261.43259"
       r="19.966417" />
    <radialGradient
       inkscape:collect="always"
       xlink:href="#linearGradient3794"
       id="radialGradient3886"
       cx="113.21611"
       cy="477.92517"
       fx="113.21611"
       fy="477.92517"
       r="19.740158"
       gradientTransform="translate(69.014085,-101.40838)"
       gradientUnits="userSpaceOnUse" />
    <radialGradient
       inkscape:collect="always"
       xlink:href="#linearGradient3759"
       id="radialGradient3894"
       gradientUnits="userSpaceOnUse"
       gradientTransform="translate(19.014085,-101.40838)"
       cx="113.21611"
       cy="477.92517"
       fx="113.21611"
       fy="477.92517"
       r="19.740158" />
    <radialGradient
       inkscape:collect="always"
       xlink:href="#linearGradient3759"
       id="radialGradient3801"
       cx="-7.828125"
       cy="510.67188"
       fx="-7.828125"
       fy="510.67188"
       r="19.596363"
       gradientTransform="matrix(1,0,0,4.0162105,0,-1540.2939)"
       gradientUnits="userSpaceOnUse" />
    <radialGradient
       inkscape:collect="always"
       xlink:href="#linearGradient3794"
       id="radialGradient3811"
       cx="61.890186"
       cy="514.19299"
       fx="61.890186"
       fy="514.19299"
       r="19.596363"
       gradientTransform="matrix(1,0,0,4.0162105,-4.9295775,-1554.4355)"
       gradientUnits="userSpaceOnUse" />
    <radialGradient
       inkscape:collect="always"
       xlink:href="#linearGradient3759"
       id="radialGradient3846"
       cx="155.30814"
       cy="508.34811"
       fx="155.30814"
       fy="508.34811"
       r="19.585125"
       gradientTransform="matrix(1,0,0,3.0423663,-29.577465,-1037.5289)"
       gradientUnits="userSpaceOnUse" />
    <radialGradient
       inkscape:collect="always"
       xlink:href="#linearGradient3794"
       id="radialGradient3852"
       gradientUnits="userSpaceOnUse"
       gradientTransform="matrix(1,0,0,3.0423663,25.352112,-1037.5289)"
       cx="155.30814"
       cy="508.34811"
       fx="155.30814"
       fy="508.34811"
       r="19.585125" />
  </defs>
  <sodipodi:namedview
     id="base"
     pagecolor="#ffffff"
     bordercolor="#666666"
     borderopacity="1.0"
     inkscape:pageopacity="0.0"
     inkscape:pageshadow="2"
     inkscape:zoom="1.42"
     inkscape:cx="101.87496"
     inkscape:cy="602.25999"
     inkscape:document-units="px"
     inkscape:current-layer="layer1"
     showgrid="false"
     inkscape:object-nodes="true"
     inkscape:snap-bbox="false"
     inkscape:window-width="1600"
     inkscape:window-height="855"
     inkscape:window-x="-4"
     inkscape:window-y="18"
     inkscape:window-maximized="1"
     showguides="true"
     inkscape:guide-bbox="true" />
  <metadata
     id="metadata7">
    <rdf:RDF>
      <cc:Work
         rdf:about="">
        <dc:format>image/svg+xml</dc:format>
        <dc:type
           rdf:resource="http://purl.org/dc/dcmitype/StillImage" />
        <dc:title></dc:title>
      </cc:Work>
    </rdf:RDF>
  </metadata>
  <g
     inkscape:label="Layer 1"
     inkscape:groupmode="layer"
     id="layer1">
    <rect
       style="fill:#000000;fill-opacity:1;stroke:#000000;stroke-width:1.21576071;stroke-linecap:round;stroke-linejoin:miter;stroke-miterlimit:4;stroke-opacity:1;stroke-dasharray:none;stroke-dashoffset:0"
       id="rect3870"
       width="274.4321"
       height="434.29129"
       x="-56.230148"
       y="235.56865" />
    <path
       style="opacity:0.47933888000000002;fill:url(#radialGradient3868);fill-opacity:1;stroke:none;stroke-width:1;stroke-linecap:round;stroke-linejoin:miter;stroke-miterlimit:4;stroke-opacity:1;stroke-dasharray:none;stroke-dashoffset:0"
       inkscape:transform-center-y="-10.29293"
       d="m -3.5274848,313.51548 c 0,0 1.85927,20.82299 5.15379,37.26958 3.29456,16.44662 14.3126288,41.66326 14.3126288,41.66326 0,0 -12.9775988,-9.67079 -19.4664188,-9.67079 -6.4888002,0 -19.4664162,9.67079 -19.4664162,9.67079 0,0 10.047256,-26.73343 13.4403662,-42.4621 3.3931,-15.72868 6.02605,-36.47074 6.02605,-36.47074 z"
       id="path3083"
       inkscape:connector-curvature="0"
       sodipodi:nodetypes="czczczc"
       inkscape:export-filename="/home/alexander/projects/battleship/battleship_pycode/images/ship2_red.png"
       inkscape:export-xdpi="300"
       inkscape:export-ydpi="300" />
    <path
       inkscape:connector-curvature="0"
       style="opacity:0.50000000000000000;fill:url(#radialGradient3894);fill-opacity:1.0;stroke:none"
       d="m 112.49004,356.77658 c 0.40256,21.94396 9.07421,39.48031 19.73284,39.48031 10.65865,0 19.34493,-17.5363 19.74747,-39.48031 -0.52934,16.32851 -9.17337,29.32152 -19.74747,29.32152 -10.57411,0 -19.20351,-12.99301 -19.73284,-29.32152 z"
       id="path3890"
       inkscape:export-filename="/home/alexander/projects/battleship/battleship_pycode/images/ship1_red.png"
       inkscape:export-xdpi="300"
       inkscape:export-ydpi="300" />
    <path
       inkscape:export-ydpi="300"
       inkscape:export-xdpi="300"
       inkscape:export-filename="/home/alexander/projects/battleship/battleship_pycode/images/ship1_blue.png"
       id="path3880"
       d="m 162.49004,356.77658 c 0.40256,21.94396 9.07421,39.48031 19.73284,39.48031 10.65865,0 19.34493,-17.5363 19.74747,-39.48031 -0.52934,16.32851 -9.17337,29.32152 -19.74747,29.32152 -10.57411,0 -19.20351,-12.99301 -19.73284,-29.32152 z"
       style="opacity:0.5;fill:url(#radialGradient3886);fill-opacity:1;stroke:none"
       inkscape:connector-curvature="0" />
    <path
       inkscape:connector-curvature="0"
       style="fill:none;stroke:#0000ff;stroke-width:1;stroke-linecap:round;stroke-linejoin:miter;stroke-miterlimit:4;stroke-opacity:1;stroke-dasharray:none;stroke-dashoffset:0"
       d="m 162.49004,356.77658 c 0.40256,21.94396 9.07421,39.48031 19.73284,39.48031 10.65865,0 19.34493,-17.5363 19.74747,-39.48031 -0.52934,16.32851 -9.17337,29.32152 -19.74747,29.32152 -10.57411,0 -19.20351,-12.99301 -19.73284,-29.32152 z"
       id="path3888"
       inkscape:export-filename="/home/alexander/projects/battleship/battleship_pycode/images/ship1_blue.png"
       inkscape:export-xdpi="300"
       inkscape:export-ydpi="300" />
    <path
       sodipodi:nodetypes="czczczc"
       inkscape:connector-curvature="0"
       id="path3872"
       d="m -3.5274848,313.51548 c 0,0 1.85927,20.82299 5.15379,37.26958 3.29456,16.44662 14.3126288,41.66326 14.3126288,41.66326 0,0 -12.9775988,-9.67079 -19.4664188,-9.67079 -6.4888002,0 -19.4664162,9.67079 -19.4664162,9.67079 0,0 10.047256,-26.73343 13.4403662,-42.4621 3.3931,-15.72868 6.02605,-36.47074 6.02605,-36.47074 z"
       inkscape:transform-center-y="-10.29293"
       style="opacity:1;fill:none;fill-opacity:1;stroke:#ff0000;stroke-width:1;stroke-linecap:round;stroke-linejoin:miter;stroke-miterlimit:4;stroke-opacity:1;stroke-dasharray:none;stroke-dashoffset:0"
       inkscape:export-filename="/home/alexander/projects/battleship/battleship_pycode/images/ship2_red.png"
       inkscape:export-xdpi="300"
       inkscape:export-ydpi="300" />
    <path
       sodipodi:type="star"
       style="fill:url(#radialGradient3765);fill-opacity:1;stroke:#000000;stroke-width:2.56093454;stroke-linecap:round;stroke-linejoin:miter;stroke-miterlimit:4;stroke-opacity:1;stroke-dasharray:none;stroke-dashoffset:0"
       id="path2989"
       sodipodi:sides="3"
       sodipodi:cx="188.73239"
       sodipodi:cy="335.46078"
       sodipodi:r1="145.50876"
       sodipodi:r2="24.567272"
       sodipodi:arg1="0.52359878"
       sodipodi:arg2="1.5707963"
       inkscape:flatsided="false"
       inkscape:rounded="0"
       inkscape:randomized="0"
       d="m 314.74667,408.21516 -126.01428,-48.1871 -126.01428,48.1871 104.7384,-85.03801 21.27588,-133.22512 21.27588,133.22512 z"
       inkscape:transform-center-y="-3.8172065"
       transform="matrix(0.31075547,0,0,0.31075547,215.97666,276.35169)"
       inkscape:export-filename="/home/alexander/Dropbox/FH/SUA/battleship/images/logo1.png"
       inkscape:export-xdpi="300"
       inkscape:export-ydpi="300" />
    <g
       style="font-size:73.89264679px;font-style:normal;font-weight:normal;line-height:125%;letter-spacing:0px;word-spacing:0px;fill:url(#radialGradient3799);fill-opacity:1;stroke:none;font-family:Sans"
       id="text3786"
       transform="matrix(1.2443596,0,0,1,18.258555,10.56338)"
       inkscape:export-filename="/home/alexander/Dropbox/FH/SUA/battleship/images/destroyed.png"
       inkscape:export-xdpi="300"
       inkscape:export-ydpi="300">
      <path
         d="m 230.33525,464.69136 7.82944,0 13.38583,20.02462 13.45799,-20.02462 7.82944,0 -17.31859,25.86964 18.47317,27.99839 -7.82945,0 -15.15377,-22.91105 -15.262,22.91105 -7.86553,0 19.23085,-28.75608 -16.77738,-25.11195"
         style="fill:url(#radialGradient3803);fill-opacity:1"
         id="path3791"
         inkscape:connector-curvature="0" />
    </g>
    <path
       style="fill:url(#linearGradient3792);stroke:#000000;stroke-width:1;stroke-linecap:round;stroke-linejoin:miter;stroke-miterlimit:4;stroke-opacity:1;stroke-dasharray:none;stroke-dashoffset:0;fill-opacity:1.0"
       d="M 375.40625 326.9375 C 376.26689 364.94172 394.80632 395.3125 417.59375 395.3125 C 440.38122 395.3125 458.95192 364.94181 459.8125 326.9375 C 458.68082 355.21645 440.20048 377.71875 417.59375 377.71875 C 394.98702 377.71875 376.53793 355.21645 375.40625 326.9375 z "
       id="path2991"
       inkscape:export-filename="/home/alexander/projects/battleship/images/logo2.png"
       inkscape:export-xdpi="300"
       inkscape:export-ydpi="300" />
    <path
       sodipodi:type="arc"
       style="fill:url(#linearGradient3806);stroke:#000000;stroke-width:1.91955962000000002;stroke-linecap:round;stroke-linejoin:miter;stroke-miterlimit:4;stroke-opacity:1;stroke-dasharray:none;stroke-dashoffset:0;fill-opacity:1.0"
       id="path3763"
       sodipodi:cx="82.042252"
       sodipodi:cy="356.58752"
       sodipodi:rx="22.887323"
       sodipodi:ry="32.394367"
       d="m 104.92957,356.58752 a 22.887323,32.394367 0 1 1 -45.774642,0 22.887323,32.394367 0 1 1 45.774642,0 z"
       transform="matrix(0.45661917,0,0,0.59435052,380.14356,133.38194)"
       inkscape:export-filename="/home/alexander/projects/battleship/images/logo2.png"
       inkscape:export-xdpi="300"
       inkscape:export-ydpi="300" />
    <path
       sodipodi:nodetypes="czczczc"
       inkscape:connector-curvature="0"
       id="path3876"
       d="m 54.472515,313.51548 c 0,0 1.85927,20.82299 5.15379,37.26958 3.29456,16.44662 14.312629,41.66326 14.312629,41.66326 0,0 -12.977599,-9.67079 -19.466419,-9.67079 -6.4888,0 -19.466416,9.67079 -19.466416,9.67079 0,0 10.047256,-26.73343 13.440366,-42.4621 3.3931,-15.72868 6.02605,-36.47074 6.02605,-36.47074 z"
       inkscape:transform-center-y="-10.29293"
       style="opacity:0.47933888000000002;fill:url(#radialGradient3878);fill-opacity:1.0;stroke:none"
       inkscape:export-filename="/home/alexander/projects/battleship/battleship_pycode/images/ship2_blue.png"
       inkscape:export-xdpi="300"
       inkscape:export-ydpi="300" />
    <path
       style="fill:none;stroke:#0000ff;stroke-width:1;stroke-linecap:round;stroke-linejoin:miter;stroke-miterlimit:4;stroke-opacity:1;stroke-dasharray:none;stroke-dashoffset:0"
       inkscape:transform-center-y="-10.29293"
       d="m 54.472515,313.51548 c 0,0 1.85927,20.82299 5.15379,37.26958 3.29456,16.44662 14.312629,41.66326 14.312629,41.66326 0,0 -12.977599,-9.67079 -19.466419,-9.67079 -6.4888,0 -19.466416,9.67079 -19.466416,9.67079 0,0 10.047256,-26.73343 13.440366,-42.4621 3.3931,-15.72868 6.02605,-36.47074 6.02605,-36.47074 z"
       id="path3874"
       inkscape:connector-curvature="0"
       sodipodi:nodetypes="czczczc"
       inkscape:export-filename="/home/alexander/projects/battleship/battleship_pycode/images/ship2_blue.png"
       inkscape:export-xdpi="300"
       inkscape:export-ydpi="300" />
    <path
       inkscape:export-ydpi="300"
       inkscape:export-xdpi="300"
       inkscape:export-filename="/home/alexander/projects/battleship/battleship_pycode/images/ship1_red.png"
       id="path3892"
       d="m 112.49004,356.77658 c 0.40256,21.94396 9.07421,39.48031 19.73284,39.48031 10.65865,0 19.34493,-17.5363 19.74747,-39.48031 -0.52934,16.32851 -9.17337,29.32152 -19.74747,29.32152 -10.57411,0 -19.20351,-12.99301 -19.73284,-29.32152 z"
       style="fill:none;stroke:#ff0000;stroke-width:1;stroke-linecap:round;stroke-linejoin:miter;stroke-miterlimit:4;stroke-opacity:1;stroke-dasharray:none;stroke-dashoffset:0"
       inkscape:connector-curvature="0" />
    <path
       style="fill:none;stroke:#ff0000;stroke-width:1;stroke-linecap:round;stroke-linejoin:miter;stroke-miterlimit:4;stroke-opacity:1;stroke-dasharray:none;stroke-dashoffset:0"
       d="M -7.8125 431.96875 C -14.588536 431.96875 -17.377913 467.61161 -17.875 488.9375 C -18.576348 519.02663 -37.479864 607.78247 -20.09375 550.75 C -14.228988 531.51155 -14.588536 589.375 -7.8125 589.375 C -1.0364632 589.375 -1.4272624 531.51155 4.4375 550.75 C 21.823613 607.78247 2.9200985 519.02663 2.21875 488.9375 C 1.7216637 467.61161 -1.0364632 431.96875 -7.8125 431.96875 z "
       id="rect3896"
       inkscape:export-filename="/home/alexander/projects/battleship/battleship_pycode/images/ship4_red.png"
       inkscape:export-xdpi="300"
       inkscape:export-ydpi="300" />
    <path
       id="path3909"
       d="m 56.976233,431.96875 c -6.776036,0 -9.565413,35.64286 -10.0625,56.96875 -0.701348,30.08913 -19.604864,118.84497 -2.21875,61.8125 5.864762,-19.23845 5.505214,38.625 12.28125,38.625 6.776037,0 6.385237,-57.86345 12.25,-38.625 17.386113,57.03247 -1.517402,-31.72337 -2.21875,-61.8125 -0.497086,-21.32589 -3.255213,-56.96875 -10.03125,-56.96875 z"
       style="fill:none;stroke:#0000ff;stroke-width:1;stroke-linecap:round;stroke-linejoin:miter;stroke-miterlimit:4;stroke-opacity:1;stroke-dasharray:none;stroke-dashoffset:0"
       inkscape:connector-curvature="0"
       inkscape:export-filename="/home/alexander/projects/battleship/battleship_pycode/images/ship4_blue.png"
       inkscape:export-xdpi="300"
       inkscape:export-ydpi="300" />
    <path
       id="path3792"
       d="M -7.8125 431.96875 C -14.588536 431.96875 -17.377913 467.61161 -17.875 488.9375 C -18.576348 519.02663 -37.479864 607.78247 -20.09375 550.75 C -14.228988 531.51155 -14.588536 589.375 -7.8125 589.375 C -1.0364632 589.375 -1.4272624 531.51155 4.4375 550.75 C 21.823613 607.78247 2.9200985 519.02663 2.21875 488.9375 C 1.7216637 467.61161 -1.0364632 431.96875 -7.8125 431.96875 z "
       style="fill:url(#radialGradient3801);stroke:none;stroke-width:1;stroke-linecap:round;stroke-linejoin:miter;stroke-miterlimit:4;stroke-opacity:1;stroke-dasharray:none;stroke-dashoffset:0;fill-opacity:1;opacity:0.5"
       inkscape:export-filename="/home/alexander/projects/battleship/battleship_pycode/images/ship4_red.png"
       inkscape:export-xdpi="300"
       inkscape:export-ydpi="300" />
    <path
       inkscape:connector-curvature="0"
       style="opacity:0.5;fill:url(#radialGradient3811);fill-opacity:1;stroke:none"
       d="m 56.976233,431.96875 c -6.776036,0 -9.565413,35.64286 -10.0625,56.96875 -0.701348,30.08913 -19.604864,118.84497 -2.21875,61.8125 5.864762,-19.23845 5.505214,38.625 12.28125,38.625 6.776037,0 6.385237,-57.86345 12.25,-38.625 17.386113,57.03247 -1.517402,-31.72337 -2.21875,-61.8125 -0.497086,-21.32589 -3.255213,-56.96875 -10.03125,-56.96875 z"
       id="path3803"
       inkscape:export-filename="/home/alexander/projects/battleship/battleship_pycode/images/ship4_blue.png"
       inkscape:export-xdpi="300"
       inkscape:export-ydpi="300" />
    <path
       style="fill:none;stroke:#ff0000;stroke-width:1;stroke-linecap:butt;stroke-linejoin:miter;stroke-miterlimit:4;stroke-opacity:1;stroke-dasharray:none"
       d="m 125.73067,449.46722 -5.45449,5.31312 0,18.6897 c -6.18461,7.61467 -8.2995,3.26928 -10.78139,0 -1.98155,6.57354 3.23827,13.14753 10.78139,19.72106 l -7.17696,12.68899 c 2.39607,16.72122 4.7809,21.4056 7.17696,27.25322 -4.70663,5.90195 -9.424,10.79287 -14.13063,25.75301 l 5.3588,9.75115 9.31409,-16.97074 4.91223,0 4.94413,0 9.2822,16.97074 5.3588,-9.75115 c -4.70664,-14.96014 -9.424,-19.85106 -14.13064,-25.75301 2.39606,-5.84762 4.81279,-10.532 7.20887,-27.25322 l -7.20887,-12.68899 c 7.54312,-6.57353 12.76295,-13.14752 10.78139,-19.72106 -2.48188,3.26928 -4.59677,7.61467 -10.78139,0 l 0,-18.6897 -5.45449,-5.31312 z"
       id="path3813"
       inkscape:connector-curvature="0"
       inkscape:export-filename="/home/alexander/projects/battleship/battleship_pycode/images/ship3_red.png"
       inkscape:export-xdpi="300"
       inkscape:export-ydpi="300" />
    <path
       inkscape:connector-curvature="0"
       id="path3828"
       d="m 125.73067,449.46722 -5.45449,5.31312 0,18.6897 c -6.18461,7.61467 -8.2995,3.26928 -10.78139,0 -1.98155,6.57354 3.23827,13.14753 10.78139,19.72106 l -7.17696,12.68899 c 2.39607,16.72122 4.7809,21.4056 7.17696,27.25322 -4.70663,5.90195 -9.424,10.79287 -14.13063,25.75301 l 5.3588,9.75115 9.31409,-16.97074 4.91223,0 4.94413,0 9.2822,16.97074 5.3588,-9.75115 c -4.70664,-14.96014 -9.424,-19.85106 -14.13064,-25.75301 2.39606,-5.84762 4.81279,-10.532 7.20887,-27.25322 l -7.20887,-12.68899 c 7.54312,-6.57353 12.76295,-13.14752 10.78139,-19.72106 -2.48188,3.26928 -4.59677,7.61467 -10.78139,0 l 0,-18.6897 -5.45449,-5.31312 z"
       style="opacity:0.5;fill:url(#radialGradient3846);fill-opacity:1;stroke:none"
       inkscape:export-filename="/home/alexander/projects/battleship/battleship_pycode/images/ship3_red.png"
       inkscape:export-xdpi="300"
       inkscape:export-ydpi="300" />
    <path
       style="opacity:0.50000000000000000;fill:url(#radialGradient3852);fill-opacity:1.0;stroke:none"
       d="m 180.66025,449.46722 -5.45449,5.31312 0,18.6897 c -6.18461,7.61467 -8.2995,3.26928 -10.78139,0 -1.98155,6.57354 3.23827,13.14753 10.78139,19.72106 l -7.17696,12.68899 c 2.39607,16.72122 4.7809,21.4056 7.17696,27.25322 -4.70663,5.90195 -9.424,10.79287 -14.13063,25.75301 l 5.3588,9.75115 9.31409,-16.97074 4.91223,0 4.94413,0 9.2822,16.97074 5.3588,-9.75115 c -4.70664,-14.96014 -9.424,-19.85106 -14.13064,-25.75301 2.39606,-5.84762 4.81279,-10.532 7.20887,-27.25322 l -7.20887,-12.68899 c 7.54312,-6.57353 12.76295,-13.14752 10.78139,-19.72106 -2.48188,3.26928 -4.59677,7.61467 -10.78139,0 l 0,-18.6897 -5.45449,-5.31312 z"
       id="path3850"
       inkscape:connector-curvature="0"
       inkscape:export-filename="/home/alexander/projects/battleship/battleship_pycode/images/ship3_blue.png"
       inkscape:export-xdpi="300"
       inkscape:export-ydpi="300" />
    <path
       inkscape:connector-curvature="0"
       id="path3848"
       d="m 180.66025,449.46722 -5.45449,5.31312 0,18.6897 c -6.18461,7.61467 -8.2995,3.26928 -10.78139,0 -1.98155,6.57354 3.23827,13.14753 10.78139,19.72106 l -7.17696,12.68899 c 2.39607,16.72122 4.7809,21.4056 7.17696,27.25322 -4.70663,5.90195 -9.424,10.79287 -14.13063,25.75301 l 5.3588,9.75115 9.31409,-16.97074 4.91223,0 4.94413,0 9.2822,16.97074 5.3588,-9.75115 c -4.70664,-14.96014 -9.424,-19.85106 -14.13064,-25.75301 2.39606,-5.84762 4.81279,-10.532 7.20887,-27.25322 l -7.20887,-12.68899 c 7.54312,-6.57353 12.76295,-13.14752 10.78139,-19.72106 -2.48188,3.26928 -4.59677,7.61467 -10.78139,0 l 0,-18.6897 -5.45449,-5.31312 z"
       style="fill:none;stroke:#0000ff;stroke-width:1;stroke-linecap:butt;stroke-linejoin:miter;stroke-miterlimit:4;stroke-opacity:1;stroke-dasharray:none"
       inkscape:export-filename="/home/alexander/projects/battleship/battleship_pycode/images/ship3_blue.png"
       inkscape:export-xdpi="300"
       inkscape:export-ydpi="300" />
  </g>
</svg>
